# xmcd CD database file
#
# Track frame offsets:
#	187
#	18197
#	36917
#	56875
#	77705
#	98820
#	117315
#	140767
#	157640
#	177852
#
# Disc length: 2627 seconds
#
# Revision: 0
# Processed by: cddbd v1.5PL3 Copyright (c) Steve Scherf et al.
# Submitted via: CDex 1.50
#
DISCID=7a0a410a
DTITLE=Wink - overture!
DYEAR=1994
DGENRE=JPop
TTITLE0=ケ・セラ・セラヴィ
TTITLE1=昔みたい
TTITLE2=You're my rainy day
TTITLE3=トゥインクル トゥインクル (60's Version)
TTITLE4=いつまでも好きでいたくて
TTITLE5=思い出の味方
TTITLE6=兵士の休日
TTITLE7=Tasty (Acoustic Version)
TTITLE8=days
TTITLE9=トゥインクル トゥインクル
EXTD=YEAR: 1994/07/01
EXTT0=
EXTT1=
EXTT2=
EXTT3=
EXTT4=
EXTT5=
EXTT6=
EXTT7=
EXTT8=
EXTT9=
PLAYORDER=
